<!-- Author: Dr Diego Malpica MD -->
<svg xmlns="http://www.w3.org/2000/svg" width="1600" height="920" viewBox="0 0 1600 920" role="img" aria-labelledby="title desc">
  <title id="title">Figure 3. Research-to-operations coupling</title>
  <desc id="desc">Diagram showing how research and operational interfaces share a common analysis core while emphasizing different workflow outputs.</desc>
  <defs>
    <style>
      .title { font: 700 30px Arial, Helvetica, sans-serif; fill: #1a1a1a; }
      .section { font: 700 22px Arial, Helvetica, sans-serif; fill: #1a1a1a; }
      .label { font: 700 18px Arial, Helvetica, sans-serif; fill: #1a1a1a; }
      .body { font: 16px Arial, Helvetica, sans-serif; fill: #1a1a1a; }
      .small { font: 14px Arial, Helvetica, sans-serif; fill: #1a1a1a; }
      .research { fill: #eaf4ff; stroke: #2c3e50; stroke-width: 2; rx: 18; ry: 18; }
      .core { fill: #eafaf1; stroke: #2c3e50; stroke-width: 2; rx: 18; ry: 18; }
      .ops { fill: #fff7e6; stroke: #2c3e50; stroke-width: 2; rx: 18; ry: 18; }
      .delivery { fill: #f4ecff; stroke: #2c3e50; stroke-width: 2; rx: 18; ry: 18; }
      .support { fill: #ffffff; stroke: #2c3e50; stroke-width: 2; rx: 16; ry: 16; }
      .arrow { stroke: #2c3e50; stroke-width: 3; fill: none; marker-end: url(#arrowhead); }
      .dashed { stroke: #2c3e50; stroke-width: 2.5; fill: none; stroke-dasharray: 9 7; marker-end: url(#arrowhead); }
    </style>
    <marker id="arrowhead" markerWidth="10" markerHeight="8" refX="9" refY="4" orient="auto">
      <polygon points="0,0 10,4 0,8" fill="#2c3e50" />
    </marker>
  </defs>

  <rect x="20" y="20" width="1560" height="880" fill="#ffffff" stroke="#2c3e50" stroke-width="2" rx="30" ry="30" />
  <text x="800" y="70" text-anchor="middle" class="title">Figure 3. Research-to-Operations Coupling</text>

  <rect x="70" y="120" width="420" height="690" class="research" />
  <text x="280" y="165" text-anchor="middle" class="section">Research-Facing Workflows</text>

  <rect x="120" y="205" width="320" height="105" class="support" />
  <text x="280" y="240" text-anchor="middle" class="label">Research Streamlit</text>
  <text x="280" y="268" text-anchor="middle" class="body">Exploratory dashboards, statistical views,</text>
  <text x="280" y="290" text-anchor="middle" class="body">cross-domain plots, and export workflows</text>

  <rect x="120" y="350" width="320" height="105" class="support" />
  <text x="280" y="385" text-anchor="middle" class="label">Analysis Artifacts</text>
  <text x="280" y="413" text-anchor="middle" class="body">Windowed summaries, correlations,</text>
  <text x="280" y="435" text-anchor="middle" class="body">tables, manuscript-ready exports</text>

  <rect x="120" y="495" width="320" height="105" class="support" />
  <text x="280" y="530" text-anchor="middle" class="label">Primary Emphasis</text>
  <text x="280" y="558" text-anchor="middle" class="body">Hypothesis generation, interpretation,</text>
  <text x="280" y="580" text-anchor="middle" class="body">and transparent exploratory analysis</text>

  <rect x="120" y="640" width="320" height="105" class="support" />
  <text x="280" y="675" text-anchor="middle" class="label">Governance Boundary</text>
  <text x="280" y="703" text-anchor="middle" class="body">Exploratory outputs require provenance</text>
  <text x="280" y="725" text-anchor="middle" class="body">before elevation to scientific findings</text>

  <rect x="570" y="120" width="460" height="690" class="core" />
  <text x="800" y="165" text-anchor="middle" class="section">Shared Analysis Substrate</text>

  <rect x="625" y="205" width="350" height="90" class="support" />
  <text x="800" y="240" text-anchor="middle" class="label">Shared Python Core</text>
  <text x="800" y="268" text-anchor="middle" class="body">HRV analytics, user persistence, and context fusion</text>

  <rect x="625" y="325" width="350" height="90" class="support" />
  <text x="800" y="360" text-anchor="middle" class="label">Shared Interpretation Layers</text>
  <text x="800" y="388" text-anchor="middle" class="body">Circadian, fatigue, space-weather, and scheduling logic</text>

  <rect x="625" y="445" width="350" height="90" class="support" />
  <text x="800" y="480" text-anchor="middle" class="label">Shared Reproducibility Layer</text>
  <text x="800" y="508" text-anchor="middle" class="body">Exports, logging, versioned artifacts, and auditability</text>

  <rect x="625" y="575" width="350" height="150" class="support" />
  <text x="800" y="615" text-anchor="middle" class="label">Coupling Principle</text>
  <text x="800" y="645" text-anchor="middle" class="body">Research and operational interfaces expose</text>
  <text x="800" y="667" text-anchor="middle" class="body">different workflow depth and decision emphasis,</text>
  <text x="800" y="689" text-anchor="middle" class="body">but they rely on the same underlying implementation</text>
  <text x="800" y="711" text-anchor="middle" class="body">rather than parallel, divergent code paths.</text>

  <rect x="1110" y="120" width="420" height="690" class="ops" />
  <text x="1320" y="165" text-anchor="middle" class="section">Operational Delivery</text>

  <rect x="1160" y="205" width="320" height="105" class="delivery" />
  <text x="1320" y="240" text-anchor="middle" class="label">Operational Streamlit</text>
  <text x="1320" y="268" text-anchor="middle" class="body">Crew workspace, readiness summaries,</text>
  <text x="1320" y="290" text-anchor="middle" class="body">mission-oriented user flows</text>

  <rect x="1160" y="350" width="320" height="105" class="delivery" />
  <text x="1320" y="385" text-anchor="middle" class="label">FastAPI + Next.js</text>
  <text x="1320" y="413" text-anchor="middle" class="body">Modern web delivery and structured</text>
  <text x="1320" y="435" text-anchor="middle" class="body">service-oriented interoperability</text>

  <rect x="1160" y="495" width="320" height="105" class="delivery" />
  <text x="1320" y="530" text-anchor="middle" class="label">Primary Emphasis</text>
  <text x="1320" y="558" text-anchor="middle" class="body">Readiness framing, schedule support,</text>
  <text x="1320" y="580" text-anchor="middle" class="body">and lower-friction operational use</text>

  <rect x="1160" y="640" width="320" height="105" class="delivery" />
  <text x="1320" y="675" text-anchor="middle" class="label">Governance Boundary</text>
  <text x="1320" y="703" text-anchor="middle" class="body">Operational use requires local validation,</text>
  <text x="1320" y="725" text-anchor="middle" class="body">training, oversight, and escalation rules</text>

  <path d="M 440 257 L 625 250" class="arrow" />
  <path d="M 440 402 L 625 370" class="arrow" />
  <path d="M 440 547 L 625 495" class="arrow" />
  <path d="M 975 250 L 1160 257" class="arrow" />
  <path d="M 975 370 L 1160 402" class="arrow" />
  <path d="M 975 495 L 1160 547" class="arrow" />
  <path d="M 800 535 L 800 575" class="dashed" />

  <text x="800" y="850" text-anchor="middle" class="small">The platform couples scientific exploration and operational deployment through one shared code base, improving consistency, auditability, and translational traceability.</text>
</svg>
