<!-- Author: Dr Diego Malpica MD -->
<svg xmlns="http://www.w3.org/2000/svg" width="1600" height="960" viewBox="0 0 1600 960" role="img" aria-labelledby="title desc">
  <title id="title">Figure 1. Platform architecture</title>
  <desc id="desc">System architecture showing inputs, shared Python model layers, task-operational modules, decision logic, and web-delivery surfaces for the OPI reference implementation.</desc>
  <defs>
    <style>
      .title { font: 700 30px Arial, Helvetica, sans-serif; fill: #1a1a1a; }
      .section { font: 700 22px Arial, Helvetica, sans-serif; fill: #1a1a1a; }
      .label { font: 700 18px Arial, Helvetica, sans-serif; fill: #1a1a1a; }
      .body { font: 16px Arial, Helvetica, sans-serif; fill: #1a1a1a; }
      .small { font: 14px Arial, Helvetica, sans-serif; fill: #1a1a1a; }
      .panel { fill: #ffffff; stroke: #2c3e50; stroke-width: 2; rx: 24; ry: 24; }
      .input { fill: #eaf4ff; stroke: #2c3e50; stroke-width: 2; rx: 16; ry: 16; }
      .core { fill: #eafaf1; stroke: #2c3e50; stroke-width: 2; rx: 16; ry: 16; }
      .decision { fill: #fff7e6; stroke: #2c3e50; stroke-width: 2; rx: 16; ry: 16; }
      .delivery { fill: #f4ecff; stroke: #2c3e50; stroke-width: 2; rx: 16; ry: 16; }
      .support { fill: #fdf2f2; stroke: #2c3e50; stroke-width: 2; rx: 16; ry: 16; }
      .arrow { stroke: #2c3e50; stroke-width: 3; fill: none; marker-end: url(#arrowhead); }
    </style>
    <marker id="arrowhead" markerWidth="10" markerHeight="8" refX="9" refY="4" orient="auto">
      <polygon points="0,0 10,4 0,8" fill="#2c3e50" />
    </marker>
  </defs>

  <rect x="20" y="20" width="1560" height="920" fill="#ffffff" stroke="#2c3e50" stroke-width="2" rx="30" ry="30" />
  <text x="800" y="70" text-anchor="middle" class="title">Figure 1. Platform Architecture</text>

  <rect x="60" y="110" width="300" height="730" class="panel" />
  <text x="210" y="150" text-anchor="middle" class="section">Inputs and Context</text>
  <rect x="95" y="190" width="230" height="90" class="input" />
  <text x="210" y="225" text-anchor="middle" class="label">RR-Interval Inputs</text>
  <text x="210" y="250" text-anchor="middle" class="body">Polar-style recordings</text>
  <text x="210" y="270" text-anchor="middle" class="body">and cleaned interval series</text>

  <rect x="95" y="315" width="230" height="90" class="input" />
  <text x="210" y="350" text-anchor="middle" class="label">Wearable-Derived Inputs</text>
  <text x="210" y="375" text-anchor="middle" class="body">Sleep, activity, and</text>
  <text x="210" y="395" text-anchor="middle" class="body">multimodal physiology feeds</text>

  <rect x="95" y="440" width="230" height="90" class="input" />
  <text x="210" y="475" text-anchor="middle" class="label">User and Mission Context</text>
  <text x="210" y="500" text-anchor="middle" class="body">Profiles, longitudinal history,</text>
  <text x="210" y="520" text-anchor="middle" class="body">crew workspace, schedule data</text>

  <rect x="95" y="565" width="230" height="90" class="input" />
  <text x="210" y="600" text-anchor="middle" class="label">Task and Operational Context</text>
  <text x="210" y="625" text-anchor="middle" class="body">Active task category, sortie</text>
  <text x="210" y="645" text-anchor="middle" class="body">duration, latency, vehicle count</text>

  <rect x="95" y="690" width="230" height="100" class="support" />
  <text x="210" y="725" text-anchor="middle" class="label">Audit Inputs</text>
  <text x="210" y="750" text-anchor="middle" class="body">Configuration, assumptions,</text>
  <text x="210" y="770" text-anchor="middle" class="body">and reproducibility metadata</text>

  <rect x="430" y="110" width="740" height="730" class="panel" />
  <text x="800" y="150" text-anchor="middle" class="section">Shared Python Modeling Backend</text>

  <rect x="480" y="190" width="280" height="90" class="core" />
  <text x="620" y="225" text-anchor="middle" class="label">HRV Analytic Model Layer</text>
  <text x="620" y="250" text-anchor="middle" class="body">Time, frequency, nonlinear,</text>
  <text x="620" y="270" text-anchor="middle" class="body">and windowed metrics</text>

  <rect x="840" y="190" width="280" height="90" class="core" />
  <text x="980" y="225" text-anchor="middle" class="label">Persistence Layer</text>
  <text x="980" y="250" text-anchor="middle" class="body">User history, assessments,</text>
  <text x="980" y="270" text-anchor="middle" class="body">measurement context</text>

  <rect x="480" y="330" width="280" height="90" class="core" />
  <text x="620" y="365" text-anchor="middle" class="label">Fatigue and Circadian Layer</text>
  <text x="620" y="390" text-anchor="middle" class="body">Reservoir-based SAFTE</text>
  <text x="620" y="410" text-anchor="middle" class="body">and circadian dynamics</text>

  <rect x="840" y="330" width="280" height="90" class="core" />
  <text x="980" y="365" text-anchor="middle" class="label">Task and Module Layer</text>
  <text x="980" y="390" text-anchor="middle" class="body">Task profiles, vigilance/latency,</text>
  <text x="980" y="410" text-anchor="middle" class="body">and PVT/sleep/trajectory modules</text>

  <rect x="610" y="470" width="400" height="100" class="decision" />
  <text x="810" y="510" text-anchor="middle" class="label">Readiness Fusion and Decision Logic</text>
  <text x="810" y="540" text-anchor="middle" class="body">Readiness framing, crew scheduling,</text>
  <text x="810" y="562" text-anchor="middle" class="body">deterministic fusion, and GO/NO-GO support</text>

  <rect x="610" y="620" width="400" height="110" class="support" />
  <text x="810" y="660" text-anchor="middle" class="label">Export and Audit Infrastructure</text>
  <text x="810" y="690" text-anchor="middle" class="body">Publication exports, structured summaries,</text>
  <text x="810" y="712" text-anchor="middle" class="body">logging, persistence, and reproducibility records</text>

  <rect x="1240" y="110" width="300" height="730" class="panel" />
  <text x="1390" y="150" text-anchor="middle" class="section">Delivery Surfaces</text>
  <rect x="1275" y="190" width="230" height="90" class="delivery" />
  <text x="1390" y="225" text-anchor="middle" class="label">Next.js Research Routes</text>
  <text x="1390" y="250" text-anchor="middle" class="body">API-backed analytics,</text>
  <text x="1390" y="270" text-anchor="middle" class="body">visualization, and exports</text>

  <rect x="1275" y="315" width="230" height="90" class="delivery" />
  <text x="1390" y="350" text-anchor="middle" class="label">Next.js Operational Routes</text>
  <text x="1390" y="375" text-anchor="middle" class="body">Crew workspace, readiness,</text>
  <text x="1390" y="395" text-anchor="middle" class="body">and mission-oriented workflows</text>

  <rect x="1275" y="440" width="230" height="90" class="delivery" />
  <text x="1390" y="475" text-anchor="middle" class="label">FastAPI Orchestration</text>
  <text x="1390" y="500" text-anchor="middle" class="body">Structured endpoints for</text>
  <text x="1390" y="520" text-anchor="middle" class="body">model serving and interoperability</text>

  <rect x="1275" y="565" width="230" height="90" class="delivery" />
  <text x="1390" y="600" text-anchor="middle" class="label">Secondary Streamlit Views</text>
  <text x="1390" y="625" text-anchor="middle" class="body">Retained for legacy or</text>
  <text x="1390" y="645" text-anchor="middle" class="body">rapid-iteration workflows</text>

  <rect x="1275" y="690" width="230" height="100" class="delivery" />
  <text x="1390" y="725" text-anchor="middle" class="label">Structured Outputs</text>
  <text x="1390" y="750" text-anchor="middle" class="body">Tables, summaries, decision</text>
  <text x="1390" y="770" text-anchor="middle" class="body">records, and manuscript assets</text>

  <path d="M 325 235 L 480 235" class="arrow" />
  <path d="M 325 360 L 480 360" class="arrow" />
  <path d="M 325 485 L 840 235" class="arrow" />
  <path d="M 325 610 L 840 375" class="arrow" />
  <path d="M 325 740 L 610 675" class="arrow" />

  <path d="M 620 280 L 620 330" class="arrow" />
  <path d="M 980 280 L 980 330" class="arrow" />
  <path d="M 620 420 L 720 470" class="arrow" />
  <path d="M 980 420 L 900 470" class="arrow" />
  <path d="M 810 570 L 810 620" class="arrow" />

  <path d="M 1010 520 L 1275 235" class="arrow" />
  <path d="M 1010 540 L 1275 360" class="arrow" />
  <path d="M 1010 660 L 1275 485" class="arrow" />
  <path d="M 1010 690 L 1275 610" class="arrow" />
  <path d="M 1010 715 L 1275 740" class="arrow" />

  <text x="800" y="895" text-anchor="middle" class="small">One shared modeling backend supports web delivery, API orchestration, and secondary interfaces while preserving auditability and task-aware interpretation.</text>
</svg>
